<svg width="82" height="32" viewBox="0 0 82 32" fill="none" xmlns="http://www.w3.org/2000/svg">
<g clip-path="url(#clip0_3989_53949)">
<path d="M26.1081 1.00606L36.7782 32L0 28.6496V0L26.1081 1.00606Z" fill="#4EAC5B"/>
<path d="M37.4249 22.3302C36.7712 22.3302 36.3232 21.978 36.0806 21.2737L32.0571 9.71345C31.9159 9.29554 31.9439 8.94339 32.1411 8.657C32.3383 8.37061 32.6743 8.22827 33.1493 8.22998C33.4954 8.22998 33.7649 8.31168 33.9575 8.47509C34.1502 8.6385 34.304 8.89471 34.4188 9.24373L37.4971 18.5528L40.7343 9.26337C40.9779 8.57273 41.3885 8.22713 41.966 8.22656C42.2735 8.22656 42.5171 8.31197 42.6969 8.48277C42.8767 8.65358 43.033 8.92004 43.159 9.28472L46.3331 18.692L49.5081 9.24543C49.5936 8.95456 49.7526 8.69159 49.9694 8.48277C50.1615 8.31197 50.4245 8.22656 50.7583 8.22656C51.1689 8.22656 51.4702 8.3689 51.6623 8.65358C51.8544 8.93826 51.8802 9.29041 51.7396 9.71003L47.6799 21.2874C47.5517 21.6404 47.3836 21.9012 47.1758 22.0697C46.968 22.2382 46.6922 22.3236 46.3483 22.3259C46.0021 22.3259 45.7263 22.2405 45.5207 22.0697C45.3152 21.8989 45.1471 21.6316 45.0166 21.2677L41.8803 12.2149L38.7339 21.2908C38.605 21.6421 38.4415 21.9032 38.2432 22.074C38.0449 22.2448 37.7722 22.3302 37.4249 22.3302Z" fill="white"/>
<path d="M55.223 22.3285C54.4025 22.3285 53.9922 21.8983 53.9922 21.038V9.51787C53.9922 8.657 54.4025 8.22656 55.223 8.22656C56.0436 8.22656 56.4541 8.657 56.4547 9.51787V21.0354C56.4547 21.8975 56.0441 22.3285 55.223 22.3285Z" fill="white"/>
<path d="M60.7313 22.1713C59.8844 22.1713 59.4609 21.7281 59.4609 20.8416V9.55716C59.4609 8.67066 59.897 8.22713 60.7691 8.22656H67.4845C68.151 8.22656 68.4843 8.55252 68.4843 9.20444C68.4843 9.88255 68.151 10.2216 67.4845 10.2216H61.9243V14.1135H67.0804C67.7464 14.1135 68.0796 14.4394 68.0802 15.0913C68.0802 15.7694 67.7469 16.1085 67.0804 16.1085H61.9243V20.8416C61.9243 21.7281 61.5266 22.1713 60.7313 22.1713Z" fill="white"/>
<path d="M75.959 22.1713C75.1374 22.1713 74.7268 21.7412 74.7274 20.8809V10.3198H70.9727C70.2669 10.3198 69.9141 9.96767 69.9141 9.26337C69.9141 8.57273 70.2669 8.22713 70.9727 8.22656H80.9387C81.6433 8.22656 81.9959 8.57217 81.9965 9.26337C81.9965 9.9671 81.6439 10.3192 80.9387 10.3198H77.1899V20.8783C77.1899 21.7403 76.7796 22.1713 75.959 22.1713Z" fill="white"/>
<path d="M14.5636 22.3672C13.7181 22.369 12.8754 22.2707 12.0523 22.0743C11.3001 21.905 10.5814 21.6076 9.9267 21.1946C9.63096 20.9988 9.45144 20.7576 9.38815 20.4712C9.32222 20.2004 9.34584 19.9149 9.45537 19.6591C9.5024 19.54 9.57265 19.4319 9.66188 19.3412C9.75111 19.2505 9.85748 19.1791 9.97459 19.1313C10.2115 19.0333 10.484 19.0823 10.7921 19.2782C11.3494 19.6154 11.9527 19.867 12.5825 20.0246C13.2314 20.1835 13.8969 20.2623 14.5644 20.2594C15.5765 20.2594 16.3139 20.0866 16.7766 19.741C17.2392 19.3954 17.47 18.9488 17.4688 18.4011C17.4688 17.9456 17.3053 17.5872 16.9782 17.3258C16.6511 17.0645 16.091 16.8493 15.2979 16.6802L13.1815 16.2301C10.7657 15.7063 9.55786 14.4469 9.55786 12.4518C9.55786 11.5909 9.78191 10.8411 10.23 10.2023C10.6781 9.56345 11.3001 9.06812 12.096 8.71625C12.8919 8.36439 13.8091 8.18817 14.8475 8.1876C15.5885 8.18389 16.3265 8.28273 17.0412 8.48139C17.7049 8.6638 18.3351 8.95454 18.9072 9.34226C19.0242 9.41816 19.1253 9.51686 19.2046 9.63266C19.2839 9.74846 19.3399 9.87906 19.3693 10.017C19.4219 10.2686 19.3878 10.5309 19.2727 10.76C19.217 10.8717 19.1397 10.9708 19.0455 11.0513C18.9512 11.1319 18.8419 11.1923 18.7241 11.2288C18.4742 11.3142 18.1824 11.259 17.8486 11.0631C17.3978 10.7986 16.912 10.601 16.406 10.4764C15.8886 10.3554 15.3591 10.2964 14.8282 10.3005C13.9438 10.3005 13.2512 10.4895 12.7505 10.8676C12.2497 11.2456 11.9997 11.741 12.0002 12.3536C12.0002 12.8233 12.154 13.1982 12.4615 13.4784C12.769 13.7585 13.2963 13.9763 14.0435 14.1317L16.1439 14.5818C17.4142 14.8551 18.3603 15.2852 18.982 15.8722C19.6037 16.4593 19.9148 17.2416 19.9154 18.2191C19.9291 18.995 19.6999 19.7552 19.2609 20.3901C18.8246 21.0164 18.2057 21.5021 17.4042 21.8471C16.6026 22.1921 15.6558 22.3655 14.5636 22.3672Z" fill="white"/>
</g>
<defs>
<clipPath id="clip0_3989_53949">
<rect width="82" height="32" fill="white"/>
</clipPath>
</defs>
</svg>
